<?xml version="1.0" standalone="no"?>
<!DOCTYPE svg PUBLIC "-//W3C//DTD SVG 20010904//EN"
 "http://www.w3.org/TR/2001/REC-SVG-20010904/DTD/svg10.dtd">
<svg version="1.0" xmlns="http://www.w3.org/2000/svg"
 width="68.000000pt" height="67.000000pt" viewBox="0 0 68.000000 67.000000"
 preserveAspectRatio="xMidYMid meet">

<g transform="translate(0.000000,67.000000) scale(0.100000,-0.100000)"
fill="#000000" stroke="none">
<path d="M160 572 c-59 -29 -70 -65 -70 -232 0 -118 3 -152 18 -180 29 -59 65
-70 232 -70 233 0 250 17 250 250 0 233 -17 250 -250 250 -118 0 -152 -3 -180
-18z m155 -103 c4 -5 19 -53 34 -106 l27 -95 16 41 c15 37 20 41 52 41 42 0
48 -15 9 -23 -24 -5 -30 -14 -46 -66 -27 -93 -36 -86 -76 56 l-27 95 -16 -40
c-17 -43 -58 -66 -80 -44 -15 15 -1 32 26 32 19 0 24 9 35 53 8 28 16 55 18
60 6 10 21 9 28 -4z"/>
</g>
</svg>
